<?xml version="1.0" encoding="UTF-8" standalone="no"?>
<!DOCTYPE svg PUBLIC "-//W3C//DTD SVG 1.1//EN" "http://www.w3.org/Graphics/SVG/1.1/DTD/svg11.dtd">
<svg width="100%" height="100%" viewBox="0 0 1653 1158" version="1.1" xmlns="http://www.w3.org/2000/svg" xmlns:xlink="http://www.w3.org/1999/xlink" xml:space="preserve" xmlns:serif="http://www.serif.com/" style="fill-rule:evenodd;clip-rule:evenodd;stroke-linejoin:round;stroke-miterlimit:2;">
    <g transform="matrix(1,0,0,1,-428.448,-496.025)">
        <g transform="matrix(4.16667,0,0,4.16667,1089.82,826.712)">
            <g id="Layer-1" serif:id="Layer 1">
                <path d="M0,119.046L0,0L102.827,59.378L0,119.046ZM229.405,-35.917C224.77,-53.006 211.736,-66.331 194.357,-70.965C163.653,-79.365 39.393,-79.365 39.393,-79.365C39.393,-79.365 -84.577,-79.365 -115.28,-70.965C-132.37,-66.331 -145.694,-53.006 -150.618,-35.917C-158.728,-5.214 -158.728,59.378 -158.728,59.378C-158.728,59.378 -158.728,123.97 -150.618,154.964C-145.694,171.763 -132.37,185.377 -115.28,190.011C-84.577,198.411 39.393,198.411 39.393,198.411C39.393,198.411 163.653,198.411 194.357,190.011C211.736,185.377 224.77,171.763 229.405,154.964C237.804,123.97 237.804,59.378 237.804,59.378C237.804,59.378 237.804,-5.214 229.405,-35.917" style="fill:white;fill-rule:nonzero;"/>
            </g>
        </g>
    </g>
</svg>
